<?xml version="1.0" standalone="no"?>
<!DOCTYPE svg PUBLIC "-//W3C//DTD SVG 20010904//EN"
 "http://www.w3.org/TR/2001/REC-SVG-20010904/DTD/svg10.dtd">
<svg version="1.0" xmlns="http://www.w3.org/2000/svg"
 width="1024.000000pt" height="1024.000000pt" viewBox="0 0 1024.000000 1024.000000"
 preserveAspectRatio="xMidYMid meet">

<g transform="translate(0.000000,1024.000000) scale(0.100000,-0.100000)"
fill="#000000" stroke="none">
<path d="M0 5120 l0 -5120 5120 0 5120 0 0 5120 0 5120 -5120 0 -5120 0 0
-5120z m7516 3177 c53 -46 49 -81 -81 -687 -199 -934 -205 -964 -205 -1051 0
-68 5 -92 30 -149 17 -38 30 -71 30 -74 0 -3 -20 9 -44 28 -25 19 -51 36 -58
38 -10 4 -10 13 -1 44 14 44 8 79 -27 164 -38 94 -29 154 139 945 84 391 154
722 157 738 7 33 24 34 60 4z m-358 -753 c-139 -651 -152 -718 -152 -814 -1
-94 2 -112 28 -174 22 -52 26 -70 16 -76 -15 -9 -95 9 -200 45 -41 15 -110 30
-154 35 -55 7 -82 14 -91 27 -11 15 -16 16 -41 4 -42 -19 -56 6 -52 94 2 39
-1 80 -5 93 -7 19 -5 22 17 22 32 0 89 50 122 106 101 173 165 590 107 700
-12 23 -33 48 -47 58 -16 10 -26 26 -26 39 0 49 -32 116 -72 153 -24 21 -33
34 -22 31 11 -3 37 -8 59 -12 22 -4 82 -20 133 -37 52 -16 96 -27 100 -24 3 3
7 42 10 85 4 77 3 82 -32 144 -20 36 -36 77 -36 92 0 30 40 75 67 75 103 2
329 22 368 33 28 8 51 13 53 12 1 -1 -66 -321 -150 -711z m-3748 544 c23 -39
25 -58 6 -58 -13 0 -36 48 -36 76 0 22 9 16 30 -18z m-109 -164 c27 -32 70
-43 122 -31 40 9 50 8 58 -4 14 -23 11 -26 -36 -39 -57 -16 -95 -58 -95 -106
0 -34 128 -496 196 -706 47 -146 98 -211 190 -243 34 -11 39 -17 42 -47 11
-128 -276 -256 -423 -189 -66 30 -102 67 -125 129 -12 31 -57 185 -101 340
-82 291 -95 329 -134 372 -12 14 -30 50 -40 80 -9 30 -25 67 -36 81 -10 15
-19 31 -19 37 0 5 24 25 54 45 117 78 213 195 272 332 l28 67 16 -51 c10 -27
23 -58 31 -67z m2157 84 c41 -45 47 -81 77 -494 11 -153 12 -217 3 -270 -6
-38 -8 -114 -5 -169 l5 -100 -19 37 c-26 51 -35 124 -64 518 -14 190 -28 380
-32 423 -6 83 -1 92 35 55z m-898 -58 c11 -11 22 -30 24 -42 35 -176 42 -247
72 -673 3 -44 7 -92 10 -108 5 -26 5 -27 -20 -16 -50 23 -68 111 -91 434 -9
121 -20 261 -25 310 -5 50 -10 96 -10 103 0 18 17 15 40 -8z m770 -571 c27
-350 41 -407 128 -516 56 -70 46 -77 -106 -70 -92 5 -153 3 -222 -8 -52 -9
-111 -18 -130 -21 -47 -7 -68 10 -84 72 -13 48 -12 51 10 77 38 44 48 100 46
257 -2 186 -16 329 -36 369 -9 17 -30 44 -46 61 -17 17 -30 39 -30 49 0 10 -7
37 -15 60 -14 39 -13 42 8 56 12 7 69 30 126 50 114 40 217 89 271 130 l35 26
12 -163 c7 -90 22 -283 33 -429z m-925 326 c30 -375 35 -430 52 -508 30 -144
103 -226 200 -227 57 0 74 -27 44 -69 -80 -112 -278 -195 -423 -177 -81 10
-160 53 -170 91 -5 17 -17 156 -28 309 -11 153 -25 296 -31 318 -5 22 -25 56
-43 76 -30 34 -49 79 -63 154 -6 32 9 41 146 87 100 34 230 96 271 129 14 11
26 19 27 18 1 0 9 -91 18 -201z m1961 145 c-79 -73 -135 -207 -181 -435 -44
-216 -35 -370 25 -455 26 -36 95 -70 146 -70 33 0 42 -5 56 -30 17 -30 17 -30
-8 -36 -13 -4 -55 -28 -92 -55 -80 -59 -141 -79 -236 -79 -85 0 -156 18 -226
56 -75 41 -83 57 -88 185 -11 257 88 558 242 738 92 106 183 166 310 202 94
27 101 24 52 -21z m-2685 -52 c9 -7 21 -33 28 -57 11 -39 11 -47 -6 -69 -11
-14 -40 -33 -66 -41 -25 -9 -51 -21 -57 -27 -9 -9 12 -94 79 -332 50 -176 91
-324 91 -327 0 -3 -5 -3 -10 0 -26 16 -65 125 -149 420 -51 176 -94 328 -97
337 -4 12 7 22 39 36 24 11 53 31 63 46 21 28 60 34 85 14z m2829 -38 c20 -11
40 -60 40 -101 0 -15 -13 -49 -30 -76 -52 -86 -102 -264 -137 -493 -7 -46 -12
-56 -30 -58 -52 -7 -73 90 -53 245 26 211 98 426 157 473 30 23 29 23 53 10z
m-4313 -132 c96 -81 153 -144 153 -169 0 -9 -13 -22 -29 -29 -37 -15 -84 -1
-234 70 -56 26 -121 54 -144 60 l-42 13 52 31 c29 18 72 46 96 64 24 18 48 32
54 32 5 0 47 -32 94 -72z m5773 -132 c43 -28 323 -173 400 -205 l55 -24 -24
-16 c-64 -45 -106 -91 -127 -138 -47 -105 -104 -382 -106 -515 -2 -68 0 -72
30 -99 18 -16 39 -29 47 -29 28 0 81 27 118 60 l37 32 -1 -33 c-1 -19 -4 -46
-8 -60 -9 -38 -458 -444 -596 -539 l-47 -32 6 28 c14 70 51 343 107 809 31
250 30 461 -1 570 -34 119 -36 155 -10 188 27 35 72 36 120 3z m-6080 -62 c30
-9 106 -40 169 -71 152 -71 211 -87 273 -72 54 12 135 77 144 115 8 32 16 30
51 -9 45 -52 58 -91 43 -128 -37 -89 -138 -88 -334 3 -162 75 -252 96 -331 79
-70 -16 -144 -65 -170 -113 -11 -21 -25 -38 -31 -38 -25 0 -64 43 -74 82 -14
51 0 89 44 123 59 45 131 54 216 29z m-400 -126 c0 -62 33 -139 76 -180 33
-30 109 -67 139 -68 12 0 39 -17 62 -38 22 -21 58 -43 80 -50 50 -15 240 -16
352 -2 46 6 152 12 235 13 195 3 241 -8 296 -70 53 -60 97 -151 105 -217 14
-109 -38 -248 -136 -366 l-52 -63 -18 36 c-11 20 -32 44 -49 54 -25 14 -30 24
-30 54 0 77 -58 155 -136 183 -75 26 -148 28 -406 11 -374 -25 -523 -5 -659
88 -82 56 -98 80 -111 165 -23 147 36 303 163 430 41 39 77 72 81 72 4 0 8
-24 8 -52z m7100 -125 c28 -26 30 -30 20 -66 -6 -21 -8 -46 -5 -57 5 -15 -3
-25 -35 -45 -50 -31 -74 -69 -101 -157 -18 -57 -29 -75 -86 -130 -39 -36 -68
-58 -70 -51 -7 20 35 230 64 321 24 78 29 86 79 123 29 21 61 50 71 64 23 31
26 31 63 -2z m371 -204 c43 -17 85 -39 94 -49 16 -18 14 -20 -41 -36 -33 -9
-85 -30 -116 -45 -51 -26 -58 -27 -58 -12 0 10 -3 41 -6 68 -5 42 -2 55 16 78
12 15 24 27 27 27 4 0 41 -14 84 -31z m300 -139 c46 -24 60 -53 46 -93 -12
-37 -35 -51 -132 -81 -142 -45 -252 -122 -500 -351 -301 -279 -584 -528 -668
-589 -109 -78 -263 -152 -364 -173 -66 -14 -79 -20 -76 -34 3 -10 -14 -38 -46
-73 -65 -71 -93 -129 -176 -356 -139 -380 -151 -407 -221 -506 -77 -110 -177
-166 -294 -166 -97 -1 -171 36 -206 104 -16 31 -18 105 -4 142 13 34 66 66
110 66 58 0 93 -29 119 -99 26 -72 47 -87 97 -71 38 13 64 55 64 106 0 31 -38
143 -137 403 -85 226 -118 291 -184 367 -53 59 -56 70 -35 99 13 17 30 19 227
20 118 1 224 -2 236 -6 31 -11 36 -40 15 -88 -16 -34 -17 -51 -10 -99 11 -72
69 -244 84 -249 14 -5 56 98 84 203 25 96 25 111 0 152 -25 41 -25 56 1 80
l20 20 -32 11 c-38 13 -122 61 -117 66 2 2 21 0 43 -6 62 -14 216 -12 290 6
88 20 200 65 285 115 138 80 248 173 682 571 357 328 442 389 608 439 50 15
80 31 103 55 17 18 36 34 40 34 4 1 26 -8 48 -19z m-4412 -164 c26 -24 18 -35
-63 -87 -179 -117 -408 -125 -544 -21 -22 17 -21 18 80 18 85 1 117 6 183 28
95 32 197 91 244 140 l34 35 22 -47 c12 -26 32 -56 44 -66z m-1827 -3 c25 -51
31 -79 36 -151 8 -152 -48 -287 -175 -422 -105 -112 -224 -189 -448 -290 -250
-114 -282 -131 -382 -200 -97 -67 -133 -79 -168 -56 -28 19 -72 96 -54 96 6 0
52 28 102 61 49 34 147 88 216 121 336 160 391 188 455 233 154 108 284 265
334 401 21 57 43 177 37 199 -2 6 -6 33 -9 60 -5 46 -4 49 10 30 8 -11 29 -48
46 -82z m2693 -37 c-12 -66 -56 -79 -232 -71 -97 5 -147 3 -208 -9 -44 -9
-104 -16 -133 -16 -48 0 -58 4 -88 34 -19 19 -34 38 -34 44 0 21 128 37 300
37 115 0 188 5 212 13 39 14 88 63 88 88 0 9 23 -9 50 -38 42 -45 49 -58 45
-82z m-1749 50 c26 -8 44 -46 44 -94 -1 -172 -291 -328 -496 -267 -27 8 -65
28 -84 44 l-35 30 56 1 c75 0 212 41 287 84 73 43 148 124 164 177 8 28 16 38
27 35 9 -2 25 -7 37 -10z m2439 -162 c9 -14 15 -27 13 -29 -14 -13 -124 -35
-177 -35 -106 0 -243 42 -306 95 l-20 17 20 -7 c11 -4 63 -9 115 -12 106 -6
199 15 275 61 l40 25 12 -45 c6 -25 19 -56 28 -70z m-4873 -48 c110 -25 233
-28 447 -12 254 20 342 20 386 1 33 -13 61 -53 46 -66 -12 -12 -347 -33 -496
-32 -194 2 -322 31 -430 98 -47 28 -39 30 47 11z m5189 -56 c30 -5 80 -20 112
-31 46 -17 55 -24 46 -35 -14 -17 -126 -19 -180 -4 -35 10 -89 53 -89 71 0 12
45 11 111 -1z m422 -150 l32 -22 -30 7 c-73 15 -105 27 -105 37 0 16 67 2 103
-22z m-5313 -134 c153 -69 274 -106 347 -106 23 0 43 -3 43 -7 0 -5 -50 -30
-110 -56 -60 -27 -157 -80 -216 -118 -58 -38 -110 -71 -114 -72 -4 -1 -45 70
-91 158 -45 88 -93 176 -106 195 l-24 35 28 24 c38 33 71 26 243 -53z m5382
47 c2 -10 -2 -58 -8 -108 -14 -113 0 -172 49 -210 39 -29 108 -55 147 -55 19
0 29 -6 33 -20 4 -16 -2 -20 -40 -26 -120 -18 -316 45 -387 125 -15 17 -18 30
-12 68 17 123 109 239 193 242 13 1 23 -6 25 -16z m208 -95 c15 -27 20 -51 18
-85 -3 -45 -5 -48 -34 -51 -18 -2 -39 4 -53 15 -22 18 -22 20 -10 105 l13 86
22 -16 c13 -10 32 -34 44 -54z m-1904 -209 c18 -20 19 -47 24 -503 l5 -483 33
-53 c59 -94 34 -117 -117 -107 -47 3 -107 2 -133 -2 -75 -12 -118 13 -118 72
0 12 -5 29 -10 37 -8 12 -16 7 -49 -27 -54 -59 -109 -83 -197 -83 -184 0 -285
144 -271 390 13 208 89 340 236 409 51 23 67 26 173 26 l116 -1 -5 36 c-7 42
-26 81 -47 99 -23 19 -20 58 7 75 12 7 53 21 91 30 76 19 136 46 179 82 35 30
58 30 83 3z m983 -5 c21 -26 21 -37 21 -470 0 -469 4 -518 46 -575 26 -36 31
-71 12 -87 -14 -11 -340 -14 -356 -3 -16 10 -32 49 -32 75 0 41 -16 39 -67
-12 -56 -55 -101 -72 -194 -72 -145 1 -234 93 -259 271 -29 201 43 409 174
496 68 47 116 58 239 57 106 0 107 0 107 23 0 33 -23 85 -49 107 -23 21 -28
58 -8 74 7 6 46 20 87 31 99 26 137 43 184 80 47 38 68 39 95 5z m-3151 -133
c53 -18 114 -70 136 -116 25 -52 23 -135 -5 -184 -30 -55 -79 -87 -176 -117
-46 -14 -83 -28 -83 -30 0 -3 33 -3 73 1 45 4 89 3 114 -4 61 -17 124 -69 158
-131 26 -48 29 -65 29 -135 0 -90 -15 -132 -64 -189 -40 -45 -106 -80 -180
-95 -85 -17 -638 -12 -656 7 -20 20 -17 41 12 83 14 21 30 55 35 76 12 52 11
618 -1 671 -6 24 -22 60 -35 80 -30 44 -31 66 -6 84 27 19 589 18 649 -1z
m678 -202 c17 -19 20 -44 25 -268 5 -192 10 -254 22 -283 29 -69 106 -77 132
-14 17 41 30 217 21 280 -5 30 -18 59 -37 80 -31 36 -37 67 -15 85 7 6 55 25
106 41 53 16 116 44 146 65 60 42 93 42 111 2 7 -14 14 -145 18 -323 8 -315 7
-314 59 -402 8 -13 11 -33 8 -44 -8 -30 -44 -39 -130 -29 -42 4 -80 7 -83 5
-4 -2 -37 -4 -75 -5 -59 -1 -70 1 -86 21 -10 12 -21 40 -24 61 -4 22 -9 39
-11 39 -3 0 -23 -16 -46 -35 -63 -54 -123 -79 -200 -83 -84 -5 -144 15 -186
63 -45 51 -53 92 -60 307 l-6 197 -27 28 c-30 31 -37 73 -14 92 8 6 56 25 107
41 55 17 114 44 143 65 57 41 76 43 102 14z"/>
<path d="M5071 5422 c-21 -21 -31 -44 -40 -93 -23 -133 -7 -299 33 -346 24
-28 66 -34 91 -13 28 23 45 109 45 230 0 131 -18 210 -53 235 -30 21 -45 19
-76 -13z"/>
<path d="M6055 5426 c-13 -13 -28 -41 -34 -62 -29 -112 -20 -304 17 -367 36
-62 92 -53 124 20 18 40 22 68 22 173 1 142 -14 210 -52 240 -32 26 -48 25
-77 -4z"/>
<path d="M3087 5623 c-4 -3 -7 -61 -7 -128 0 -135 7 -153 56 -141 39 10 67 82
62 161 -5 80 -27 115 -72 115 -18 0 -36 -3 -39 -7z"/>
<path d="M3098 5219 c-16 -9 -18 -29 -18 -184 0 -166 1 -175 21 -185 24 -14
77 -4 103 19 37 33 50 73 50 161 0 104 -25 163 -79 186 -40 16 -54 17 -77 3z"/>
</g>
</svg>
